<?xml version="1.0" standalone="no"?>
<!DOCTYPE svg PUBLIC "-//W3C//DTD SVG 20010904//EN"
 "http://www.w3.org/TR/2001/REC-SVG-20010904/DTD/svg10.dtd">
<svg version="1.0" xmlns="http://www.w3.org/2000/svg"
 width="100.000000pt" height="100.000000pt" viewBox="0 0 100.000000 100.000000"
 preserveAspectRatio="xMidYMid meet">
<metadata>
Created by potrace 1.13, written by Peter Selinger 2001-2015
</metadata>
<g transform="translate(0.000000,100.000000) scale(0.100000,-0.100000)"
fill="#000000" stroke="none">
<path d="M464 963 c-16 -8 -38 -17 -49 -19 -26 -5 -68 -52 -61 -69 2 -7 -15
-35 -40 -61 -36 -40 -41 -50 -28 -57 10 -6 12 -12 5 -20 -12 -16 13 -77 32
-77 7 0 30 -18 50 -41 l37 -40 -26 -34 c-14 -18 -24 -39 -23 -47 2 -7 -5 -31
-15 -53 -9 -22 -24 -68 -33 -103 -15 -62 -15 -62 10 -101 22 -33 33 -39 81
-49 73 -15 149 -52 210 -102 54 -44 91 -58 115 -43 24 15 19 117 -8 176 -12
25 -21 50 -21 54 0 4 -8 22 -17 38 -9 17 -16 43 -17 60 -1 21 -10 35 -35 52
-19 13 -30 23 -26 23 4 0 0 9 -10 20 -23 25 -16 32 37 39 41 6 43 7 46 46 1
21 8 42 14 46 9 6 9 14 0 34 -17 36 -15 75 2 75 8 0 18 -4 21 -10 3 -5 11 -10
16 -10 6 0 8 4 5 9 -3 5 4 16 17 24 21 13 26 38 18 79 0 3 -17 12 -36 18 -34
11 -47 34 -23 42 8 3 4 12 -9 25 -16 16 -24 18 -33 10 -9 -9 -11 -7 -8 8 2 11
-2 20 -9 19 -7 -1 -26 -2 -43 -2 -23 -2 -28 -6 -23 -19 4 -11 3 -14 -5 -9 -7
4 -12 15 -12 25 0 18 -26 41 -61 53 -9 4 -29 0 -45 -9z m59 -417 c50 -28 56
-35 42 -46 -20 -16 -19 -31 1 -23 10 4 17 -1 21 -15 3 -12 21 -31 40 -42 27
-16 34 -25 30 -42 -3 -12 3 -39 14 -60 11 -22 19 -42 17 -43 -2 -2 -26 24 -53
58 -91 114 -179 209 -203 218 -13 5 -20 13 -17 19 11 18 49 10 108 -24z"/>
</g>
</svg>
